<?xml version="1.0" encoding="utf-8"?>
<!-- Generator: Adobe Illustrator 28.1.0, SVG Export Plug-In . SVG Version: 6.00 Build 0)  -->
<svg version="1.1" id="Layer_1" xmlns="http://www.w3.org/2000/svg" xmlns:xlink="http://www.w3.org/1999/xlink" x="0px" y="0px"
	 viewBox="0 0 605.3 126.7" style="enable-background:new 0 0 605.3 126.7;" xml:space="preserve">
<style type="text/css">
	.st0{fill:#00B30F;}
	.st1{fill:#FFFFFF;}
</style>
<g>
	<g>
		<path class="st0" d="M111.7,59.8L68.6,119c-1.1,1.5-0.7,3.5,0.7,4.6c0.6,0.4,1.2,0.6,1.9,0.6h86.2c1.8,0,3.3-1.5,3.3-3.3
			c0-0.7-0.2-1.4-0.6-1.9L117,59.8c-1.1-1.5-3.1-1.8-4.6-0.7C112.2,59.3,111.9,59.6,111.7,59.8z"/>
		<path class="st1" d="M222.4,119.5l-84.5-116c-1.1-1.5-3.1-1.8-4.6-0.7c-0.3,0.2-0.5,0.4-0.7,0.7L53.1,112.5
			c-0.6,0.8-1.6,1.3-2.6,1.3H30.1c-1.8,0-3.3-1.4-3.3-3.2c0-0.7,0.2-1.4,0.6-1.9l63.4-87c1.1-1.5,3.1-1.8,4.6-0.7
			c0.3,0.2,0.5,0.4,0.7,0.7l5.5,7.6c1.1,1.5,3.1,1.8,4.5,0.7c0.3-0.2,0.5-0.4,0.7-0.7l2.6-3.6c0.9-1.1,0.9-2.7,0-3.9L96.1,3.4
			C95,2,93,1.7,91.5,2.7c-0.3,0.2-0.5,0.4-0.7,0.7l-84.5,116c-1.1,1.4-0.7,3.5,0.7,4.5c0.6,0.4,1.2,0.6,1.9,0.6h47
			c1,0,2-0.5,2.6-1.3l74-101.5c1.1-1.5,3.1-1.8,4.6-0.7c0.3,0.2,0.5,0.4,0.7,0.7l63.4,87c1.1,1.4,0.7,3.5-0.7,4.5
			c-0.6,0.4-1.2,0.6-1.9,0.6h-20.4c-1,0-2-0.5-2.6-1.3L127.1,46c-1-1.5-3.1-1.8-4.5-0.7c-0.3,0.2-0.5,0.4-0.7,0.7l-2.6,3.6
			c-0.8,1.2-0.8,2.7,0,3.9l50.9,69.9c0.6,0.8,1.6,1.3,2.6,1.3h47c1.8,0,3.2-1.5,3.2-3.3C223,120.7,222.8,120,222.4,119.5z"/>
	</g>
	<g>
		<path d="M264.7,52h9.2v34.5h0.3c1.9-2.8,3.8-5.3,5.6-7.6L301.7,52h11.5l-25.9,30.3l27.9,41.2h-10.9l-23.6-35.1l-6.8,7.9v27.3h-9.2
			V52z"/>
		<path d="M334.8,101l-7.4,22.5h-9.5L342.1,52h11.1l24.4,71.5h-9.9l-7.6-22.5H334.8z M358.2,93.8l-7-20.6c-1.6-4.7-2.7-8.9-3.7-13
			h-0.2c-1.1,4.2-2.2,8.6-3.6,12.9l-7,20.7H358.2z"/>
		<path d="M388.2,52.8c4.5-0.7,10.3-1.4,17.7-1.4c9.1,0,15.8,2.1,20.1,5.9c3.9,3.4,6.3,8.6,6.3,15c0,6.5-1.9,11.6-5.5,15.3
			c-4.9,5.2-12.8,7.9-21.9,7.9c-2.8,0-5.3-0.1-7.4-0.6v28.6h-9.2V52.8z M397.4,87.3c2,0.5,4.6,0.7,7.6,0.7
			c11.1,0,17.9-5.4,17.9-15.3c0-9.4-6.7-14-16.9-14c-4,0-7.1,0.3-8.7,0.7V87.3z"/>
		<path d="M453.8,52v71.5h-9.2V52H453.8z"/>
		<path d="M524.4,120.3c-4.1,1.5-12.3,3.9-22,3.9c-10.8,0-19.7-2.8-26.7-9.4c-6.2-5.9-10-15.5-10-26.6c0.1-21.3,14.7-36.9,38.7-36.9
			c8.3,0,14.7,1.8,17.8,3.3L520,62c-3.8-1.7-8.6-3.1-15.8-3.1c-17.4,0-28.8,10.8-28.8,28.7c0,18.1,10.9,28.9,27.6,28.9
			c6,0,10.2-0.8,12.3-1.9V93.3h-14.5v-7.4h23.6V120.3z"/>
		<path d="M599.6,87c0,24.6-15,37.7-33.2,37.7c-18.9,0-32.1-14.6-32.1-36.3c0-22.7,14.1-37.6,33.2-37.6
			C587,50.8,599.6,65.7,599.6,87z M544.1,88.1c0,15.3,8.3,29,22.8,29c14.6,0,22.9-13.5,22.9-29.7c0-14.2-7.4-29.1-22.8-29.1
			C551.7,58.3,544.1,72.4,544.1,88.1z"/>
	</g>
</g>
</svg>
