<?xml version="1.0" encoding="utf-8"?>
<!-- Generator: Adobe Illustrator 28.1.0, SVG Export Plug-In . SVG Version: 6.00 Build 0)  -->
<svg version="1.1" id="Layer_1" xmlns="http://www.w3.org/2000/svg" xmlns:xlink="http://www.w3.org/1999/xlink" x="0px" y="0px"
	 viewBox="0 0 605.3 126.7" style="enable-background:new 0 0 605.3 126.7;" xml:space="preserve">
<style type="text/css">
	.st0{fill:#00B30F;}
	.st1{fill:#FFFFFF;}
</style>
<g>
	<path class="st0" d="M111.7,59.8c-65.1,90.5-60.1,58.6,45.7,64.3c2.6,0.1,4.2-3.1,2.6-5.2c0,0-43.1-59.1-43.1-59.1
		C115.7,58.1,113,58.1,111.7,59.8z"/>
	<path class="st1" d="M222.4,119.5l-84.5-116c-1.3-1.8-4-1.8-5.3,0C130,4.8,54.5,114.9,50.5,113.9c0,0-20.4,0-20.4,0
		c-2.6,0.1-4.2-3.1-2.6-5.2c0,0,63.4-87,63.4-87c6.6-6.9,9.4,14.4,16,7.6c1.2-1.9,4.7-5.1,2.6-7.5c0,0-13.4-18.4-13.4-18.4
		C95,2,93,1.7,91.5,2.7c-0.9,0.4-84.5,116-85.2,116.7c-1.1,1.4-0.7,3.5,0.7,4.5c1.5,0.8,50.8,1.9,51.6-0.7c0,0,74-101.6,74-101.6
		c1.2-1.8,4-1.8,5.3,0c0,0,63.4,87,63.4,87c1.6,2,0,5.2-2.6,5.2c-2.2-0.4-22.2,1.3-23.1-1.3c-2.3-0.3-49.4-74.5-53-67.4
		c-1.6,2-5.4,5.4-3.4,8.2c0,0,50.9,69.9,50.9,69.9c-1.7,2.6,49.1,0.8,49.6,1.3C222.3,124.7,223.9,121.5,222.4,119.5z"/>
</g>
<g>
	<path class="st1" d="M264.7,52h9.2v34.5h0.3c3.6-5.6,23-28.9,27.5-34.5h11.5l-25.9,30.3l27.9,41.2h-10.9l-23.6-35.1l-6.8,7.9v27.3
		h-9.2V52z"/>
	<path class="st1" d="M334.8,101l-7.4,22.5h-9.5L342.1,52h11.1l24.4,71.5h-9.9l-7.6-22.5H334.8z M358.2,93.8
		c-2.8-8.4-9-25.4-10.7-33.6h-0.2c-1.8,8.4-7.8,25.2-10.6,33.6H358.2z"/>
	<path class="st1" d="M388.2,52.8c9.1-1.8,31.1-3,37.8,4.6c8.2,6.3,8.1,23.4,0.7,30.2c-5.9,6.8-19.5,9.2-29.3,7.2v28.6h-9.2V52.8z
		 M397.4,87.3c34.3,7.5,34.4-36,0-27.8V87.3z"/>
	<path class="st1" d="M453.8,52v71.5h-9.2V52H453.8z"/>
	<path class="st1" d="M524.4,120.3c-77,28-78.9-89.3-2.1-65.8L520,62c-55.6-22.2-61.4,68.8-4.7,52.6V93.3h-14.5v-7.4h23.6V120.3z"/>
	<path class="st1" d="M599.6,87c1.6,50.1-66.9,49.2-65.4,1.4C532.9,39.4,600.9,38.4,599.6,87z M544.1,88.1
		c-0.5,38.5,46.7,38.3,45.7-0.7C590.7,49.1,543,48.7,544.1,88.1z"/>
</g>
</svg>
